<?xml version="1.0" encoding="utf-8"?>
<!-- Generator: Adobe Illustrator 23.1.0, SVG Export Plug-In . SVG Version: 6.00 Build 0)  -->
<svg version="1.1" id="Layer_1" xmlns="http://www.w3.org/2000/svg" xmlns:xlink="http://www.w3.org/1999/xlink" x="0px" y="0px"
	 viewBox="0 0 20 13" style="enable-background:new 0 0 20 13;" xml:space="preserve">
<style type="text/css">
	.st0{fill:#FFFFFF;}
</style>
<g>
	<path class="st0" d="M6.48,5.27c0,0.04-0.01,0.07-0.01,0.1c0,0.74,0,2.35,0,2.35s3.09,0,3.26,0c0,0.24-0.29,1.21-1.2,1.83
		C8,9.9,7.4,10.07,6.77,10.11c-0.45,0.03-0.89-0.02-1.32-0.15C4.09,9.52,3.08,8.29,2.94,6.79c-0.03-0.37-0.01-0.74,0.07-1.1
		c0.4-1.77,2.08-3.08,4-2.8C7.87,3.02,8.36,3.37,8.8,3.75c0.59-0.59,1.17-1.17,1.77-1.77c-0.15-0.1-0.48-0.45-1.08-0.79
		C8.6,0.67,7.64,0.42,6.61,0.41c-0.19,0-0.39,0.01-0.58,0.02c-0.34,0.01-0.67,0.07-1,0.16C3.71,0.91,2.62,1.6,1.76,2.66
		C0.94,3.67,0.5,4.84,0.41,6.14c-0.04,0.55,0.01,1.1,0.13,1.64c0.34,1.51,1.13,2.72,2.38,3.64c0.97,0.71,2.05,1.08,3.25,1.15
		c0.67,0.04,1.34-0.03,1.99-0.2c1.22-0.32,2.23-0.95,2.99-1.97c1.1-1.47,1.37-3.35,1.04-5.13C10.29,5.27,8.39,5.27,6.48,5.27z"/>
	<polygon class="st0" points="19.56,5.35 17.5,5.35 17.5,3.28 17.5,3.22 17.44,3.22 15.9,3.22 15.84,3.22 15.84,3.28 15.84,5.35 
		13.78,5.35 13.72,5.35 13.72,5.41 13.72,6.95 13.72,7.01 13.78,7.01 15.84,7.01 15.84,9.07 15.84,9.13 15.9,9.13 17.44,9.13 
		17.5,9.13 17.5,9.07 17.5,7.01 19.56,7.01 19.62,7.01 19.62,6.95 19.62,5.41 19.62,5.35 	"/>
</g>
</svg>
